<?xml version="1.0" encoding="UTF-8"?>
<svg id="_ëîé_1" data-name="‘ëîé_1" xmlns="http://www.w3.org/2000/svg" viewBox="0 0 4000 2000">
  <defs>
    <style>
      .cls-1 {
        fill: #192e4f;
      }

      .cls-2 {
        fill: #e9e9e9;
      }

      .cls-3, .cls-4 {
        fill: #fff;
      }

      .cls-5 {
        fill: #5d86e2;
      }

      .cls-6 {
        fill: #d6826f;
      }

      .cls-7 {
        fill: #e2bdb6;
      }

      .cls-8 {
        fill: #2e262a;
      }

      .cls-9 {
        fill: #e36e67;
      }

      .cls-4 {
        opacity: .3;
      }

      .cls-10 {
        fill: #9b5140;
      }

      .cls-11 {
        fill: #883d30;
      }

      .cls-12 {
        fill: #f7d4cb;
      }

      .cls-13 {
        fill: #e9f3fe;
      }

      .cls-14 {
        fill: #618dc1;
      }

      .cls-15 {
        opacity: .4;
      }

      .cls-16 {
        fill: #f5eff6;
      }

      .cls-17 {
        fill: #de9c85;
      }

      .cls-18 {
        fill: #cba19f;
      }

      .cls-19 {
        fill: #42393d;
      }

      .cls-20 {
        fill: #699dee;
      }

      .cls-21 {
        fill: #d8544e;
      }

      .cls-22 {
        fill: #dbd6dc;
      }
    </style>
  </defs>
  <g id="background">
    <rect class="cls-12" width="4000" height="2000"/>
    <g>
      <path class="cls-4" d="m727,116.2c0,144.98-117.52,262.5-262.5,262.5S202,261.18,202,116.2c0-41.72,9.73-81.17,27.06-116.2h470.88c17.33,35.03,27.06,74.48,27.06,116.2Z"/>
      <path class="cls-4" d="m1825,1933.6c0-82.84,67.16-150,150-150s150,67.16,150,150c0,23.84-5.56,46.39-15.46,66.4h-269.07c-9.9-20.02-15.46-42.56-15.46-66.4Z"/>
      <path class="cls-4" d="m4000,1677.28v322.72h-809.96c2.94-257.87,212.9-466,471.46-466,132.81,0,252.8,54.92,338.5,143.28Z"/>
      <circle class="cls-4" cx="3778" cy="1210" r="53"/>
      <circle class="cls-4" cx="3686" cy="521" r="102"/>
      <circle class="cls-4" cx="1924" cy="216" r="53"/>
      <circle class="cls-4" cx="3696" cy="1045" r="32"/>
      <circle class="cls-4" cx="1750" cy="311" r="32"/>
    </g>
  </g>
  <g>
    <g class="cls-15">
      <g>
        <rect class="cls-22" x="912.75" y="697.37" width="175.77" height="144.94" transform="translate(2001.27 1539.67) rotate(180)"/>
        <rect class="cls-16" x="1000.64" y="697.37" width="175.77" height="144.94" transform="translate(2177.04 1539.67) rotate(180)"/>
        <polygon class="cls-10" points="912.85 805.55 940.7 805.55 938.25 797.71 940.7 792.11 912.85 792.11 912.85 805.55"/>
        <polygon class="cls-22" points="1000.64 742.22 1028.49 742.22 1026.03 734.38 1028.49 728.78 1000.64 728.78 1000.64 742.22"/>
        <polygon class="cls-10" points="1000.64 728.78 972.78 728.78 975.24 736.62 972.78 742.22 1000.64 742.22 1000.64 728.78"/>
        <polygon class="cls-22" points="1176.41 807.1 1148.56 807.1 1151.01 814.94 1148.56 820.54 1176.41 820.54 1176.41 807.1"/>
        <rect class="cls-2" x="1114.32" y="707.19" width="50.58" height="19.68"/>
      </g>
      <g>
        <rect class="cls-22" x="602.33" y="697.37" width="175.77" height="144.94" transform="translate(1380.44 1539.67) rotate(180)"/>
        <rect class="cls-16" x="690.22" y="697.37" width="175.77" height="144.94" transform="translate(1556.21 1539.67) rotate(180)"/>
        <polygon class="cls-10" points="602.44 805.55 630.29 805.55 627.84 797.71 630.29 792.11 602.44 792.11 602.44 805.55"/>
        <polygon class="cls-22" points="690.22 742.22 718.07 742.22 715.62 734.38 718.07 728.78 690.22 728.78 690.22 742.22"/>
        <polygon class="cls-10" points="690.22 728.78 662.37 728.78 664.82 736.62 662.37 742.22 690.22 742.22 690.22 728.78"/>
        <polygon class="cls-22" points="866 807.1 838.15 807.1 840.6 814.94 838.15 820.54 866 820.54 866 807.1"/>
        <rect class="cls-2" x="803.9" y="707.19" width="50.58" height="19.68"/>
      </g>
      <g>
        <rect class="cls-16" x="488.64" y="842.3" width="67.61" height="806.38"/>
        <rect class="cls-16" x="1229.85" y="842.3" width="56.2" height="806.38"/>
        <rect class="cls-16" x="556.24" y="842.3" width="729.81" height="20.99"/>
        <rect class="cls-22" x="556.24" y="1224.51" width="729.81" height="20.99"/>
        <rect class="cls-22" x="556.24" y="1545.06" width="729.81" height="20.99"/>
        <g>
          <rect class="cls-22" x="924.92" y="1074.66" width="181.73" height="149.85" transform="translate(2031.57 2299.17) rotate(180)"/>
          <rect class="cls-16" x="1015.78" y="1074.66" width="181.73" height="149.85" transform="translate(2213.3 2299.17) rotate(180)"/>
          <polygon class="cls-10" points="925.03 1186.5 953.82 1186.5 951.29 1178.4 953.82 1172.61 925.03 1172.61 925.03 1186.5"/>
          <polygon class="cls-22" points="1015.78 1121.03 1044.58 1121.03 1042.04 1112.93 1044.58 1107.14 1015.78 1107.14 1015.78 1121.03"/>
          <polygon class="cls-10" points="1015.78 1107.14 986.99 1107.14 989.52 1115.24 986.99 1121.03 1015.78 1121.03 1015.78 1107.14"/>
          <polygon class="cls-22" points="1197.52 1188.11 1168.72 1188.11 1171.26 1196.22 1168.72 1202.01 1197.52 1202.01 1197.52 1188.11"/>
          <rect class="cls-2" x="1133.32" y="1084.82" width="52.3" height="20.35"/>
        </g>
        <g>
          <rect class="cls-22" x="691.71" y="1074.66" width="181.73" height="149.85" transform="translate(1565.14 2299.17) rotate(180)"/>
          <rect class="cls-16" x="782.57" y="1074.66" width="181.73" height="149.85" transform="translate(1746.87 2299.17) rotate(180)"/>
          <polygon class="cls-10" points="691.81 1186.5 720.61 1186.5 718.07 1178.4 720.61 1172.61 691.81 1172.61 691.81 1186.5"/>
          <polygon class="cls-22" points="782.57 1121.03 811.37 1121.03 808.83 1112.93 811.37 1107.14 782.57 1107.14 782.57 1121.03"/>
          <polygon class="cls-10" points="782.57 1107.14 753.77 1107.14 756.31 1115.24 753.77 1121.03 782.57 1121.03 782.57 1107.14"/>
          <polygon class="cls-22" points="964.3 1188.11 935.51 1188.11 938.04 1196.22 935.51 1202.01 964.3 1202.01 964.3 1188.11"/>
          <polygon class="cls-22" points="964.3 1105.17 935.51 1105.17 938.04 1113.27 935.51 1119.06 964.3 1119.06 964.3 1105.17"/>
          <rect class="cls-2" x="800.92" y="1175.3" width="85.23" height="33.16"/>
        </g>
        <g>
          <rect class="cls-22" x="924.92" y="1415.07" width="157.07" height="129.51" transform="translate(2006.91 2959.65) rotate(180)"/>
          <rect class="cls-16" x="1003.46" y="1415.07" width="157.07" height="129.51" transform="translate(2163.98 2959.65) rotate(180)"/>
          <polygon class="cls-10" points="925.01 1511.74 949.9 1511.74 947.71 1504.73 949.9 1499.73 925.01 1499.73 925.01 1511.74"/>
          <polygon class="cls-22" points="1003.46 1455.15 1028.34 1455.15 1026.15 1448.15 1028.34 1443.14 1003.46 1443.14 1003.46 1455.15"/>
          <polygon class="cls-10" points="1003.46 1443.14 978.57 1443.14 980.76 1450.15 978.57 1455.15 1003.46 1455.15 1003.46 1443.14"/>
          <polygon class="cls-22" points="1160.53 1513.13 1135.64 1513.13 1137.83 1520.13 1135.64 1525.14 1160.53 1525.14 1160.53 1513.13"/>
          <rect class="cls-3" x="1105.04" y="1423.85" width="45.2" height="17.58"/>
        </g>
        <g>
          <rect class="cls-22" x="626.61" y="1394.74" width="181.73" height="149.85" transform="translate(1434.95 2939.32) rotate(180)"/>
          <rect class="cls-16" x="717.48" y="1394.74" width="181.73" height="149.85" transform="translate(1616.68 2939.32) rotate(180)"/>
          <polygon class="cls-19" points="626.72 1506.58 655.51 1506.58 652.98 1498.48 655.51 1492.69 626.72 1492.69 626.72 1506.58"/>
          <polygon class="cls-22" points="717.48 1441.11 746.27 1441.11 743.74 1433.01 746.27 1427.22 717.48 1427.22 717.48 1441.11"/>
          <polygon class="cls-19" points="717.48 1427.22 688.68 1427.22 691.22 1435.32 688.68 1441.11 717.48 1441.11 717.48 1427.22"/>
          <polygon class="cls-14" points="899.21 1508.19 870.41 1508.19 872.95 1516.29 870.41 1522.08 899.21 1522.08 899.21 1508.19"/>
          <rect class="cls-2" x="835.01" y="1404.9" width="52.29" height="20.34"/>
        </g>
        <g>
          <rect class="cls-22" x="677.76" y="959.42" width="138.93" height="114.56" transform="translate(1494.45 2033.39) rotate(180)"/>
          <rect class="cls-16" x="747.23" y="959.42" width="138.93" height="114.56" transform="translate(1633.38 2033.39) rotate(180)"/>
          <polygon class="cls-10" points="677.84 1044.92 699.86 1044.92 697.92 1038.73 699.86 1034.3 677.84 1034.3 677.84 1044.92"/>
          <polygon class="cls-22" points="747.23 994.87 769.24 994.87 767.3 988.67 769.24 984.25 747.23 984.25 747.23 994.87"/>
          <polygon class="cls-10" points="747.23 984.25 725.21 984.25 727.15 990.44 725.21 994.87 747.23 994.87 747.23 984.25"/>
          <polygon class="cls-22" points="886.16 1046.15 864.14 1046.15 866.08 1052.35 864.14 1056.77 886.16 1056.77 886.16 1046.15"/>
          <rect class="cls-2" x="837.08" y="967.18" width="39.98" height="15.55"/>
        </g>
        <g>
          <rect class="cls-22" x="925.98" y="959.42" width="138.93" height="114.56" transform="translate(1990.9 2033.39) rotate(180)"/>
          <rect class="cls-16" x="995.45" y="959.42" width="138.93" height="114.56" transform="translate(2129.83 2033.39) rotate(180)"/>
          <polygon class="cls-10" points="926.07 1044.92 948.08 1044.92 946.14 1038.73 948.08 1034.3 926.07 1034.3 926.07 1044.92"/>
          <polygon class="cls-22" points="995.45 994.87 1017.46 994.87 1015.52 988.67 1017.46 984.25 995.45 984.25 995.45 994.87"/>
          <polygon class="cls-10" points="995.45 984.25 973.43 984.25 975.37 990.44 973.43 994.87 995.45 994.87 995.45 984.25"/>
          <polygon class="cls-22" points="1134.38 1046.15 1112.37 1046.15 1114.31 1052.35 1112.37 1056.77 1134.38 1056.77 1134.38 1046.15"/>
          <rect class="cls-2" x="1085.3" y="967.18" width="39.98" height="15.55"/>
        </g>
      </g>
    </g>
    <g>
      <path class="cls-19" d="m2038.65,1424.73l-3.46-1.02c9.13-31.04-7.44-63.36-36.95-72.04l-74.32-21.87c-15.3-4.5-23.89-21.26-19.15-37.35,15.3-52.01-12.47-106.16-61.91-120.71l1.07-3.64c51.35,15.11,80.19,71.35,64.3,125.37-4.15,14.09,3.38,28.75,16.77,32.69l74.32,21.87c31.41,9.24,49.06,43.65,39.33,76.69Z"/>
      <path class="cls-19" d="m2031.14,1450.24l-3.46-1.02c9.13-31.04-7.44-63.36-36.95-72.04l-74.32-21.87c-15.3-4.5-23.89-21.26-19.16-37.35,15.31-52.01-12.47-106.16-61.91-120.71l1.07-3.64c51.35,15.11,80.19,71.35,64.3,125.37-4.15,14.09,3.38,28.75,16.77,32.69l74.32,21.87c31.41,9.24,49.06,43.65,39.33,76.69Z"/>
      <g>
        <rect class="cls-11" x="1488.53" y="1073.4" width="156.49" height="129.03"/>
        <rect class="cls-10" x="1410.29" y="1073.4" width="156.49" height="129.03"/>
        <polygon class="cls-6" points="1644.93 1169.71 1620.13 1169.71 1622.32 1162.74 1620.13 1157.75 1644.93 1157.75 1644.93 1169.71"/>
        <polygon class="cls-17" points="1566.78 1113.34 1541.98 1113.34 1544.17 1106.36 1541.98 1101.37 1566.78 1101.37 1566.78 1113.34"/>
        <polygon class="cls-6" points="1566.78 1101.37 1591.57 1101.37 1589.39 1108.35 1591.57 1113.34 1566.78 1113.34 1566.78 1101.37"/>
        <polygon class="cls-17" points="1410.29 1171.1 1435.08 1171.1 1432.9 1178.08 1435.08 1183.06 1410.29 1183.06 1410.29 1171.1"/>
        <rect class="cls-16" x="1420.54" y="1082.15" width="45.03" height="17.52" transform="translate(2886.1 2181.83) rotate(180)"/>
      </g>
      <path class="cls-19" d="m1650.64,722.52c-22.44,0-45.97-3.56-59.02-11.09-20.77-11.99-47.12-6.9-47.39-6.85l-.64-3.18c1.13-.23,27.8-5.39,49.65,7.22,21.54,12.43,75.05,13.53,99.28,5.28,23.87-8.12,55.56-16.87,68.74-16.87v3.25c-12.81,0-44.07,8.65-67.69,16.7-10.71,3.65-26.53,5.55-42.93,5.55Z"/>
      <rect class="cls-19" x="1511.4" y="954.47" width="10.26" height="66.95"/>
      <rect class="cls-19" x="1531.72" y="954.47" width="10.26" height="66.95"/>
      <path class="cls-19" d="m1650.64,715.31c-22.44,0-45.97-3.56-59.02-11.09-20.77-11.99-47.12-6.9-47.39-6.85l-.64-3.18c1.13-.23,27.8-5.39,49.65,7.22,21.54,12.43,75.05,13.53,99.28,5.28,23.87-8.12,55.56-16.87,68.74-16.87v3.25c-12.81,0-44.07,8.65-67.69,16.7-10.71,3.65-26.53,5.55-42.93,5.55Z"/>
      <path class="cls-19" d="m1866.77,1106.64h-4.26v-3.25h4.26c19.74,0,35.79-16.06,35.79-35.79v-370.51c0-19.74-16.06-35.79-35.79-35.79h-31.6v-3.25h31.6c21.53,0,39.04,17.51,39.04,39.04v370.51c0,21.53-17.51,39.04-39.04,39.04Z"/>
      <path class="cls-19" d="m1862.51,1075.27v-3.25c13.73,0,24.89-11.17,24.89-24.89v-344.41c0-13.31-10.83-24.14-24.14-24.14h-25.04v-3.25h25.04c15.1,0,27.39,12.29,27.39,27.39v344.41c0,15.52-12.63,28.14-28.14,28.14Z"/>
      <path class="cls-16" d="m1480.93,725.57h88.66c12.61,0,22.84,10.23,22.84,22.84v198.08c0,12.61-10.24,22.84-22.84,22.84h-88.66c-12.61,0-22.84-10.23-22.84-22.84v-198.08c0-12.61,10.24-22.84,22.84-22.84Z"/>
      <g>
        <circle class="cls-22" cx="1494.91" cy="760.26" r="11.69" transform="translate(440.77 2064.69) rotate(-78.01)"/>
        <path class="cls-22" d="m1483.22,926.95c0-6.46,5.23-11.69,11.69-11.69s11.69,5.23,11.69,11.69-5.24,11.69-11.69,11.69-11.69-5.23-11.69-11.69Z"/>
        <path class="cls-22" d="m1543.91,760.26c0-6.46,5.24-11.69,11.69-11.69s11.69,5.23,11.69,11.69-5.23,11.69-11.69,11.69-11.69-5.23-11.69-11.69Z"/>
        <path class="cls-22" d="m1543.91,926.95c0-6.46,5.24-11.69,11.69-11.69s11.69,5.23,11.69,11.69-5.23,11.69-11.69,11.69-11.69-5.23-11.69-11.69Z"/>
      </g>
      <path class="cls-10" d="m1575.15,1032.91c0,2.41-.54,4.75-1.53,6.97h-91.82c-1-2.23-1.53-4.56-1.53-6.97,0-15.21,21.25-27.55,47.44-27.55s47.44,12.34,47.44,27.55Z"/>
      <path class="cls-19" d="m1654.68,1064.32v124.78c0,10.01-4.92,19.38-13.16,25.06l-38.06,26.24c-2.73,1.88-6.46,1.2-8.34-1.53h0c-1.88-2.73-1.2-6.47,1.53-8.35l38.06-26.24c4.99-3.44,7.97-9.11,7.97-15.18v-124.78c0-13.5-10.94-24.44-24.44-24.44h-181.05c-13.5,0-24.44,10.94-24.44,24.44v124.07c0,6.4,3.24,12.24,8.67,15.63l42.52,26.58c2.81,1.76,3.66,5.45,1.91,8.26h0c-1.76,2.81-5.46,3.67-8.27,1.91l-42.52-26.57c-8.97-5.6-14.31-15.25-14.31-25.82v-124.07c0-20.13,16.32-36.44,36.44-36.44h181.05c20.13,0,36.44,16.32,36.44,36.44Z"/>
      <rect class="cls-19" x="1521.63" y="650.54" width="249.47" height="7.51"/>
      <rect class="cls-19" x="1521.63" y="671.57" width="249.47" height="7.51"/>
      <path class="cls-10" d="m1557.61,725.57h-74.39v-52.19c0-21.21,17.19-38.4,38.4-38.4h0c21.21,0,38.4,17.19,38.4,38.4v49.77c0,1.34-1.08,2.42-2.42,2.42Z"/>
      <path class="cls-18" d="m1783.78,634.98h37.92c17.82,0,32.29,14.47,32.29,32.29v676.66c0,17.82-14.47,32.29-32.29,32.29h-37.92c-17.82,0-32.29-14.47-32.29-32.29v-676.66c0-17.82,14.47-32.29,32.29-32.29Z"/>
      <path class="cls-19" d="m1796.77,670.99c0-3.29,2.67-5.96,5.96-5.96s5.96,2.67,5.96,5.96-2.67,5.96-5.96,5.96-5.96-2.67-5.96-5.96Z"/>
      <path class="cls-10" d="m1755.02,739.42h91.71c8.71,0,15.78,7.07,15.78,15.78v462.89c0,8.71-7.07,15.78-15.78,15.78h-91.71c-8.71,0-15.78-7.07-15.78-15.78v-462.89c0-8.71,7.07-15.78,15.78-15.78Z"/>
      <path class="cls-10" d="m1754.51,1330.49h99.9c8.43,0,15.27,6.84,15.27,15.27v67.95h-115.17c-8.43,0-15.27-6.84-15.27-15.27v-52.68c0-8.43,6.84-15.27,15.27-15.27Z"/>
      <g>
        <circle class="cls-10" cx="1521.63" cy="671.57" r="22.7" transform="translate(807.5 2173.7) rotate(-88.39)"/>
        <path class="cls-19" d="m1521.63,694.98c-12.91,0-23.41-10.5-23.41-23.41s10.5-23.41,23.41-23.41,23.41,10.5,23.41,23.41-10.5,23.41-23.41,23.41Zm0-45.41c-12.13,0-22,9.87-22,22s9.87,22,22,22,22-9.87,22-22-9.87-22-22-22Z"/>
        <circle class="cls-11" cx="1521.63" cy="671.57" r="13.86" transform="translate(518.42 1998.2) rotate(-76.72)"/>
      </g>
    </g>
    <g>
      <path class="cls-22" d="m2080.57,1577.73H878.37c-45.29,0-82.01-36.72-82.01-82.01h0c0-45.29,36.72-82.01,82.01-82.01h1202.2c45.29,0,82.01,36.72,82.01,82.01h0c0,45.3-36.72,82.01-82.01,82.01Z"/>
      <path class="cls-22" d="m2162.58,1495.71c0,22.65-9.18,43.15-24.02,58-14.84,14.84-35.34,24.02-57.99,24.02h-203.85c-4.37,0-7.91-3.54-7.91-7.91v-148.21c0-4.37,3.54-7.91,7.91-7.91h203.85c45.3,0,82.01,36.72,82.01,82.01Z"/>
      <path class="cls-16" d="m2103.7,1574.61c-.31,1.04-.63,2.07-.95,3.12-2.75,8.84-5.77,17.81-9.09,26.92-.46,1.27-.93,2.54-1.41,3.81-4.03,10.85-8.47,21.89-13.36,33.13t0,.02l-118.73.06-1090.01.55v-67.6h1233.55Z"/>
      <path class="cls-16" d="m1230.62,1486.86l-9.25-4.29c-.77-.36-1.27-1.12-1.29-1.97-.03-1.08-.1-2.18-.22-3.27-.22-2.04-.58-4.01-1.1-5.92-.24-.89.07-1.83.81-2.38l8.48-6.46c.91-.68,1.14-1.96.52-2.93l-5.22-8.23c-.59-.93-1.78-1.26-2.77-.78l-8.8,4.32c-.85.44-1.89.25-2.58-.46-2.87-3-6.23-5.52-9.91-7.48-.9-.48-1.35-1.52-1.11-2.5l1.43-5.8c.26-1.1-.34-2.24-1.41-2.64l-9.09-3.29c-.19-.07-.37-.12-.57-.13-.91-.09-1.8.4-2.18,1.26l-3.22,6.91-.78,1.69c-1.81-.06-3.66,0-5.51.21-2.49.27-4.91.77-7.21,1.47-.88.26-1.83-.03-2.38-.77l-5.19-6.83c-.72-.93-2.02-1.17-3.01-.53l-6.29,3.98-1.8,1.15c-.99.62-1.35,1.89-.83,2.93l3.6,7.37c.43.85.27,1.88-.4,2.53-1.96,2-3.71,4.19-5.21,6.54-.15.2-.26.39-.38.59-.04.07-.08.14-.14.2-.53.72-1.45,1.04-2.32.81l-9.42-2.31c-.1-.03-.21-.04-.32-.06-1-.09-1.96.5-2.31,1.47l-3.3,9.06c-.39,1.09.1,2.31,1.17,2.81l9.65,4.47c.82.36,1.32,1.2,1.27,2.11-.08,1.98-.03,3.99.2,6.04.12,1.09.28,2.16.49,3.21.16.85-.18,1.73-.87,2.25l-8.15,6.22c-.9.67-1.13,1.94-.52,2.9l5.17,8.14c.63.98,1.89,1.35,2.95.83l6.96-3.42c.94-.46,2.05-.22,2.72.57,2.6,3.13,5.66,5.83,9.07,8.03.82.5,1.21,1.48.98,2.43l-2.08,8.48c-.27,1.14.35,2.31,1.45,2.72l9.04,3.29c1.08.39,2.3-.12,2.76-1.16l.19-.4,3.73-8.03c.4-.86,1.27-1.36,2.22-1.3h0c2.27.15,4.58.11,6.93-.14,1.25-.13,2.46-.34,3.69-.58.84-.18,1.7.14,2.22.82l5.27,6.94c.72.95,2.05,1.19,3.05.56l8.1-5.14c.23-.15.42-.34.58-.53.5-.66.62-1.58.24-2.35l-2.9-5.88c-.34-.72-.28-1.58.15-2.23.12-.17.26-.33.42-.47,4-3.35,7.29-7.45,9.68-12.09.4-.79,1.24-1.24,2.11-1.19.13,0,.25.03.38.07l7.62,1.87c1.11.27,2.24-.33,2.64-1.4l.07-.21,3.22-8.83c.39-1.12-.12-2.33-1.19-2.84Zm-29.97,2.92c-.93,2.61-3.29,5.81-5.69,7.9-.56.48-1.12.91-1.65,1.23-2.5,1.57-5.06,2.6-7.59,3.17-14.45,3.21-27.95-8.92-25.44-24.32.25-1.54.66-3.12,1.25-4.71,1.13-3.05,4.29-7.01,7.04-8.75.29-.19.59-.36.88-.54,18.03-10.58,38.35,6.06,31.2,26.02Z"/>
      <path class="cls-16" d="m1293.22,1526.67l-6.66-3.09c-.55-.26-.91-.81-.92-1.42-.02-.78-.07-1.56-.16-2.35-.16-1.47-.42-2.88-.79-4.25-.17-.64.06-1.33.58-1.72l6.1-4.65c.66-.49.82-1.41.38-2.11l-3.75-5.92c-.43-.67-1.28-.91-2-.57l-6.33,3.12c-.62.31-1.36.18-1.85-.34-2.07-2.15-4.48-3.97-7.14-5.38-.63-.34-.97-1.09-.79-1.79l1.03-4.17c.19-.79-.24-1.61-1.01-1.9l-6.54-2.36c-.14-.06-.27-.08-.41-.09-.65-.07-1.3.29-1.58.91l-2.31,4.98-.56,1.2c-1.31-.04-2.63,0-3.97.15-1.78.2-3.53.55-5.18,1.06-.62.19-1.32-.02-1.71-.55l-3.73-4.91c-.52-.67-1.46-.84-2.16-.39l-4.53,2.87-1.29.83c-.71.45-.97,1.36-.61,2.11l2.59,5.29c.31.62.2,1.35-.28,1.82-1.42,1.44-2.68,3.02-3.75,4.7-.1.14-.19.28-.28.43-.02.05-.06.09-.09.14-.38.51-1.05.74-1.67.58l-6.78-1.65c-.07-.03-.16-.04-.23-.05-.71-.06-1.41.36-1.66,1.06l-2.37,6.52c-.28.79.07,1.66.84,2.03l6.94,3.21c.59.27.94.88.91,1.52-.06,1.42-.02,2.88.14,4.35.08.77.2,1.55.34,2.31.11.62-.12,1.24-.62,1.61l-5.85,4.47c-.65.49-.82,1.4-.38,2.09l3.72,5.85c.44.71,1.35.97,2.11.6l5.02-2.46c.67-.34,1.47-.16,1.95.41,1.86,2.25,4.07,4.19,6.53,5.77.59.36.87,1.07.7,1.76l-1.49,6.1c-.2.82.25,1.66,1.04,1.95l6.5,2.36c.77.29,1.64-.07,1.98-.82l.14-.29,2.69-5.78c.28-.62.92-.98,1.6-.93h0c1.62.11,3.29.08,4.98-.1.9-.09,1.77-.24,2.65-.41.61-.13,1.23.09,1.61.59l3.79,4.99c.52.68,1.47.85,2.19.39l5.83-3.7c.16-.1.3-.24.41-.38.36-.48.44-1.14.18-1.69l-2.09-4.23c-.24-.52-.21-1.14.11-1.61.08-.12.18-.24.3-.34,2.88-2.41,5.24-5.36,6.96-8.7.29-.57.9-.89,1.52-.85.08,0,.18.02.27.04l5.48,1.34c.79.2,1.61-.23,1.9-1.01l.06-.15,2.32-6.36c.28-.8-.08-1.68-.86-2.04Zm-21.55,2.1c-.67,1.88-2.37,4.18-4.1,5.68-.4.35-.8.65-1.19.89-1.8,1.13-3.63,1.88-5.45,2.29-10.4,2.31-20.1-6.42-18.29-17.5.18-1.1.48-2.24.9-3.39.81-2.19,3.09-5.04,5.06-6.29.21-.13.43-.26.63-.39,12.97-7.6,27.58,4.36,22.45,18.72Z"/>
      <path class="cls-16" d="m1585.4,1486.86l-9.25-4.29c-.77-.36-1.26-1.12-1.29-1.97-.03-1.08-.09-2.18-.22-3.27-.22-2.04-.58-4.01-1.1-5.92-.24-.89.07-1.83.8-2.38l8.48-6.46c.92-.68,1.15-1.96.52-2.93l-5.21-8.23c-.6-.93-1.78-1.26-2.77-.78l-8.81,4.32c-.85.44-1.89.25-2.57-.46-2.88-3-6.23-5.52-9.92-7.48-.89-.48-1.35-1.52-1.11-2.5l1.44-5.8c.25-1.1-.34-2.24-1.41-2.64l-9.1-3.29c-.19-.07-.36-.12-.56-.13-.91-.09-1.8.4-2.19,1.26l-3.21,6.91-.77,1.69c-1.81-.06-3.66,0-5.51.21-2.49.27-4.91.77-7.21,1.47-.88.26-1.83-.03-2.38-.77l-5.2-6.83c-.71-.93-2.02-1.17-3-.53l-6.3,3.98-1.79,1.15c-.99.62-1.35,1.89-.84,2.93l3.61,7.37c.42.85.27,1.88-.4,2.53-1.97,2-3.73,4.19-5.21,6.54-.15.2-.26.39-.38.59-.04.07-.09.14-.14.2-.53.72-1.46,1.04-2.32.81l-9.42-2.31c-.1-.03-.21-.04-.32-.06-1-.09-1.96.5-2.32,1.47l-3.29,9.06c-.4,1.09.1,2.31,1.17,2.81l9.65,4.47c.82.36,1.32,1.2,1.27,2.11-.09,1.98-.03,3.99.2,6.04.11,1.09.28,2.16.48,3.21.16.85-.17,1.73-.86,2.25l-8.15,6.22c-.9.67-1.13,1.94-.52,2.9l5.17,8.14c.62.98,1.88,1.35,2.94.83l6.97-3.42c.93-.46,2.04-.22,2.72.57,2.59,3.13,5.66,5.83,9.07,8.03.81.5,1.21,1.48.98,2.43l-2.08,8.48c-.28,1.14.35,2.31,1.45,2.72l9.03,3.29c1.09.39,2.3-.12,2.76-1.16l.2-.4,3.73-8.03c.39-.86,1.27-1.36,2.21-1.3h.02c2.26.15,4.57.11,6.92-.14,1.25-.13,2.47-.34,3.69-.58.85-.18,1.71.14,2.23.82l5.27,6.94c.72.95,2.05,1.19,3.05.56l8.1-5.14c.22-.15.42-.34.58-.53.49-.66.62-1.58.23-2.35l-2.89-5.88c-.35-.72-.28-1.58.15-2.23.11-.17.25-.33.42-.47,4-3.35,7.28-7.45,9.68-12.09.39-.79,1.24-1.24,2.11-1.19.12,0,.25.03.37.07l7.63,1.87c1.1.27,2.23-.33,2.63-1.4l.07-.21,3.22-8.83c.39-1.12-.12-2.33-1.19-2.84Zm-29.96,2.92c-.94,2.61-3.29,5.81-5.69,7.9-.56.48-1.12.91-1.65,1.23-2.51,1.57-5.06,2.6-7.6,3.17-14.45,3.21-27.94-8.92-25.44-24.32.26-1.54.67-3.12,1.26-4.71,1.13-3.05,4.28-7.01,7.03-8.75.3-.19.59-.36.89-.54,18.03-10.58,38.34,6.06,31.2,26.02Z"/>
      <path class="cls-16" d="m1648.02,1526.67l-6.66-3.09c-.55-.26-.91-.81-.92-1.42-.03-.78-.07-1.56-.16-2.35-.16-1.47-.42-2.88-.79-4.25-.18-.64.05-1.33.58-1.72l6.1-4.65c.65-.49.82-1.41.37-2.11l-3.74-5.92c-.43-.67-1.29-.91-2-.57l-6.34,3.12c-.61.31-1.35.18-1.85-.34-2.06-2.15-4.48-3.97-7.13-5.38-.64-.34-.97-1.09-.8-1.79l1.04-4.17c.19-.79-.24-1.61-1.02-1.9l-6.54-2.36c-.13-.06-.26-.08-.4-.09-.65-.07-1.3.29-1.58.91l-2.31,4.98-.56,1.2c-1.3-.04-2.63,0-3.96.15-1.79.2-3.53.55-5.18,1.06-.63.19-1.32-.02-1.71-.55l-3.74-4.91c-.51-.67-1.45-.84-2.16-.39l-4.53,2.87-1.3.83c-.71.45-.97,1.36-.6,2.11l2.6,5.29c.31.62.2,1.35-.29,1.82-1.41,1.44-2.67,3.02-3.74,4.7-.11.14-.19.28-.28.43-.03.05-.07.09-.09.14-.39.51-1.05.74-1.68.58l-6.77-1.65c-.08-.03-.16-.04-.23-.05-.72-.06-1.41.36-1.66,1.06l-2.37,6.52c-.29.79.07,1.66.84,2.03l6.93,3.21c.6.27.95.88.92,1.52-.07,1.42-.02,2.88.14,4.35.08.77.21,1.55.35,2.31.11.62-.13,1.24-.63,1.61l-5.86,4.47c-.64.49-.81,1.4-.37,2.09l3.71,5.85c.45.71,1.35.97,2.12.6l5.01-2.46c.67-.34,1.48-.16,1.95.41,1.87,2.25,4.07,4.19,6.53,5.77.58.36.87,1.07.7,1.76l-1.49,6.1c-.21.82.25,1.66,1.04,1.95l6.5,2.36c.78.29,1.65-.07,1.99-.82l.14-.29,2.68-5.78c.29-.62.91-.98,1.6-.93h0c1.63.11,3.3.08,4.99-.1.9-.09,1.77-.24,2.65-.41.61-.13,1.22.09,1.6.59l3.8,4.99c.51.68,1.47.85,2.19.39l5.82-3.7c.17-.1.31-.24.42-.38.35-.48.44-1.14.17-1.69l-2.08-4.23c-.25-.52-.21-1.14.1-1.61.08-.12.19-.24.31-.34,2.88-2.41,5.24-5.36,6.96-8.7.28-.57.89-.89,1.51-.85.09,0,.18.02.27.04l5.49,1.34c.79.2,1.61-.23,1.89-1.01l.06-.15,2.31-6.36c.29-.8-.08-1.68-.85-2.04Zm-21.56,2.1c-.67,1.88-2.36,4.18-4.09,5.68-.41.35-.81.65-1.19.89-1.8,1.13-3.64,1.88-5.46,2.29-10.39,2.31-20.1-6.42-18.3-17.5.19-1.1.49-2.24.91-3.39.81-2.19,3.08-5.04,5.06-6.29.21-.13.42-.26.63-.39,12.97-7.6,27.57,4.36,22.44,18.72Z"/>
      <path class="cls-16" d="m1386.4,1478.36l-10.04-1.77c-.83-.16-1.51-.77-1.75-1.58-.31-1.05-.66-2.08-1.05-3.11-.74-1.9-1.59-3.72-2.58-5.43-.47-.8-.4-1.78.17-2.51l6.54-8.41c.7-.9.6-2.18-.25-2.97l-7.15-6.63c-.81-.75-2.04-.76-2.88-.05l-7.41,6.44c-.7.64-1.75.72-2.6.21-3.55-2.15-7.43-3.73-11.51-4.68-.98-.23-1.69-1.13-1.71-2.14l-.1-5.96c-.03-1.14-.9-2.09-2.04-2.2l-9.64-.85c-.2-.02-.38-.02-.58.02-.9.15-1.63.86-1.79,1.79l-1.33,7.5-.32,1.83c-1.76.4-3.54.94-5.27,1.61-2.33.91-4.55,2.01-6.59,3.27-.78.48-1.77.44-2.49-.13l-6.78-5.27c-.92-.72-2.25-.62-3.03.25l-5.07,5.46-1.45,1.57c-.79.86-.82,2.17-.06,3.05l5.38,6.2c.63.71.74,1.74.26,2.54-1.39,2.44-2.52,5-3.36,7.66-.09.22-.15.44-.22.66,0,.08-.05.15-.07.22-.34.83-1.15,1.37-2.04,1.38l-9.7.19c-.1,0-.21,0-.32.03-.99.17-1.76.99-1.87,2.01l-.86,9.61c-.1,1.16.69,2.2,1.85,2.41l10.47,1.86c.89.14,1.58.83,1.76,1.71.42,1.94,1,3.87,1.74,5.8.39,1.02.82,2.01,1.29,2.98.37.78.28,1.72-.25,2.4l-6.29,8.09c-.69.89-.59,2.16.24,2.94l7.08,6.54c.85.79,2.16.82,3.05.06l5.86-5.1c.79-.68,1.92-.74,2.77-.15,3.3,2.37,6.96,4.19,10.83,5.44.92.28,1.56,1.13,1.57,2.1l.17,8.74c.02,1.17.92,2.13,2.09,2.24l9.57.87c1.15.1,2.18-.7,2.38-1.82l.08-.44,1.55-8.71c.16-.93.88-1.65,1.81-1.83h0c2.23-.44,4.45-1.06,6.65-1.91,1.18-.45,2.31-.95,3.42-1.5.77-.39,1.68-.3,2.36.22l6.88,5.36c.93.74,2.29.63,3.09-.24l6.52-7.05c.19-.21.32-.44.42-.66.32-.77.19-1.69-.37-2.34l-4.3-4.94c-.52-.61-.68-1.46-.43-2.19.07-.2.17-.38.29-.56,3.01-4.26,5.13-9.06,6.26-14.16.18-.87.88-1.52,1.73-1.69.12-.03.25-.04.38-.05l7.85-.14c1.14-.02,2.07-.9,2.18-2.04l.02-.22.85-9.36c.09-1.18-.71-2.22-1.88-2.44Zm-28.22,10.51c-.24,2.75-1.7,6.45-3.48,9.08-.43.61-.86,1.16-1.29,1.61-2.02,2.16-4.22,3.82-6.52,5.01-13.14,6.81-29.29-1.47-30.82-17-.14-1.56-.15-3.19,0-4.88.31-3.23,2.35-7.87,4.56-10.25.23-.26.47-.5.71-.76,14.73-14.84,38.62-3.96,36.83,17.17Z"/>
      <path class="cls-8" d="m2080.57,1581.41H878.37c-47.26,0-85.7-38.45-85.7-85.7,0-22.88,8.92-44.4,25.11-60.59,16.18-16.18,37.7-25.1,60.59-25.1h1202.2c47.25,0,85.69,38.44,85.69,85.69,0,22.89-8.91,44.41-25.1,60.6-16.18,16.18-37.7,25.1-60.59,25.1Zm-1202.2-164.03c-20.92,0-40.6,8.15-55.39,22.94-14.8,14.8-22.95,34.47-22.95,55.39,0,43.2,35.14,78.34,78.34,78.34h1202.2c20.93,0,40.6-8.15,55.39-22.94,14.79-14.8,22.94-34.48,22.94-55.4,0-43.19-35.14-78.33-78.33-78.33H878.37Z"/>
    </g>
    <g>
      <g>
        <rect class="cls-11" x="989.39" y="1183.04" width="118.88" height="98.02" transform="translate(2097.65 2464.11) rotate(180)"/>
        <rect class="cls-10" x="1048.83" y="1183.04" width="118.88" height="98.02" transform="translate(2216.53 2464.11) rotate(180)"/>
        <polygon class="cls-6" points="989.46 1256.21 1008.3 1256.21 1006.64 1250.91 1008.3 1247.12 989.46 1247.12 989.46 1256.21"/>
        <polygon class="cls-17" points="1048.83 1213.38 1067.67 1213.38 1066.01 1208.08 1067.67 1204.29 1048.83 1204.29 1048.83 1213.38"/>
        <polygon class="cls-6" points="1048.83 1204.29 1029.99 1204.29 1031.65 1209.59 1029.99 1213.38 1048.83 1213.38 1048.83 1204.29"/>
        <polygon class="cls-17" points="1167.71 1257.26 1148.87 1257.26 1150.53 1262.56 1148.87 1266.35 1167.71 1266.35 1167.71 1257.26"/>
        <rect class="cls-16" x="1125.71" y="1189.69" width="34.21" height="13.31"/>
      </g>
      <path class="cls-6" d="m1111.63,1276.89c2.89-1.88,9.42-5.99,9.72-5.01.21.71-.17,1.88-.99,3.09,3.91-1.29,7.86-2.08,17.04.05,1.84.43,3.48,1.55,4.44,3.17.89,1.51,1.17,3.36-1.25,4.73-4.83,2.75-3.4,1.05-10.12,5.07-6.73,4.02-14.8,4.8-19.49,1.62l-6.4-1.32-.39-10.63s3.69-.3,7.44-.77Z"/>
      <path class="cls-17" d="m980.89,1171.43c-17.63,10.98-35.89-3.94-35.89-3.94,0,0,6.99-17.9,2.62-41.52-.18-.96,30.76,11.79,31.69,11.99h.02s0,.07.03.21c.02.15.04.3.06.45.49,4.16.82,8.3,1.05,12.15.68,11.54.43,20.65.43,20.65Z"/>
      <path class="cls-6" d="m980.46,1150.78c-14.05-1.27-24.85-9.15-28.43-13.58-1.09-1.33,26.46.7,27.28.77h.02s0,.07.03.21c.02.11.04.26.06.45.49,4.16.82,8.3,1.05,12.15Z"/>
      <path class="cls-17" d="m985.08,1136s-30.33,13.41-38.39-5.61c-8.06-19.02-17.4-30.09,1.62-39.46,19.02-9.36,25.89-3.71,30.12,1.98,4.23,5.69,14.33,39.11,6.65,43.09Z"/>
      <path class="cls-19" d="m948.79,1135.59c-.38.36-6.82,3.74-24.57-19.6-2.79-3.66-5.81-12.15-2.53-20.76,3.28-8.62,18.92-17.84,32.36-23.09,6.31-2.47,12.32-1.99,16.92-.78,5.67,1.48,9,7.42,7.39,13.05-2.54,8.9-8.85,14.36-16.83,14.12-5.35-.16-5.01,10.76-4.91,13.36.1,2.6-.08,4.82-6.82,3.74-5.77-.93-2.51,6.69-.58,10.12.96,1.69,1.49,3.61,1.37,5.55-.09,1.5-.54,3.1-1.82,4.3Z"/>
      <path class="cls-8" d="m902.37,1642.09h-19.55c-4.1,0-8.65-4.1-9.79-11.61-1.14-7.52-9.56-11.61-11.39-17.76-1.82-6.15,7.52-14.8,7.52-14.8l1.56-2.01,1.62-2.09,15.48,3.64s.38,3.69.62,8.38c.17,3.39.26,7.31.06,10.75-.46,8.2,2.3,17.03,9.58,18.62,7.29,1.59,4.27,6.88,4.27,6.88Z"/>
      <path class="cls-8" d="m1038.45,1642.09h-51.81c-.5-.1-.87-.21-1.1-.32-3.46-1.73-2.38-14.98-1.96-19.07.08-.76.14-1.2.14-1.2,0,0,18.22-14.57,20.73-3.41.08.35.17.69.27,1.03h0c3.16,10.45,17.3,15.19,25.47,16.51,6.24,1.02,7.86,4.65,8.27,6.47Z"/>
      <path class="cls-9" d="m1028,1343.31s-2.77,34.52-6.02,76.02c-4.42,56.37-9.74,125.61-10.26,138.73-.91,22.78-4.56,59.21-4.56,59.21,0,0-8.65,8.66-25.96,5.01,0,0-15.43-52.01-19.83-107.04-.07-.9-.14-1.81-.21-2.72-4.1-56.02-10.47-173.99-10.47-173.99l77.31,4.78Z"/>
      <path class="cls-19" d="m1020.32,1338.53c-7.3.44-84.37-2.47-84.39-6.78-.07-14.97-3.2-39.2-7.11-68.63-.71-5.48-1.28-10.93-1.69-16.31-1.08-14.01-1.13-27.5-.08-39.68,1.94-22.64,7.83-37.17,17.64-45.69,0,0,9.23.76,17.73,2.04,9.63,1.45,13.19.84,19.8-1.01l11.76,10.13c7.04,6.56,12.68,13.41,14.94,22.88,0,0,12.04,142.99,11.39,143.04Z"/>
      <path class="cls-8" d="m939.82,1235s8.11,25.69,35.18,38.14c27.07,12.45,10.89-23.65,10.89-23.65l-46.07-14.49Z"/>
      <path class="cls-9" d="m1008.93,1195.49l-21.05,4.89-28.97,78.45c-4.16,11.27-13.75,18.22-25.76,18.22l-.04,1.87,1.43,37.38,93.34,8.48s.44-46.79-1.23-61.77c-2.48-22.19-17.73-87.53-17.73-87.53Z"/>
      <path class="cls-19" d="m1109.87,1282.84c.66-6.13-2.48-7.28-2.48-7.28,0,0-62.04-13.74-67.29-15.62-5.25-1.88-48.83-50.88-48.83-50.88,0,0-16.65-20.31-31.07-16.52-12.53,3.29-17.75,12.76-19.75,21.9-2.39,10.89-9.9,14.35-.62,20.55,20.82,13.9,74.64,49.09,84.58,52.43,22.12,7.43,82.47,3.72,82.47,3.72,0,0,2.47-3.49,3-8.3Z"/>
      <path class="cls-9" d="m966.07,1177.66c-4.9-4.55-21.38-16.21-21.38-16.21,0,0,.66-1.1,1.64-2.07.95-.95,2.09-1.65,2.09-1.65,2.1-.44,18.34,11.77,23.75,16.59,6.51,5.8,24.59,24,24.59,24l-8.87,2.06s-16.04-17.36-21.81-22.72Z"/>
      <g>
        <path class="cls-10" d="m986.37,1091.1s-12.09,6.8-16.55,7.94c-1.33.34-21.09,5.31-21.09,5.31l-28.3,10.4s-9.6-20.67,2.24-36.86h0c.3-.41.61-.82.93-1.22,3.26-4.03,7.94-7.72,14.52-10.69,33.37-15.05,47.86,23.88,48.23,25.12Z"/>
        <path class="cls-11" d="m970.09,1098.36l-5.39,1.73c-5.34-4.93-24.87-21.86-42.24-21.77.08-.17.15-.31.22-.43h0c.23-.41.43-.63.75-1.23.06,0,.12,0,.18.01,22.47,1.29,41.92,17.27,46.48,21.69Z"/>
        <path class="cls-10" d="m948.73,1104.35s-3,4.93-3.25,9.2c-.25,4.27-18.78,10.13-20.47,8.24-1.69-1.89-4.58-7.03-4.58-7.03l28.3-10.4Z"/>
        <path class="cls-11" d="m948.73,1104.35s35.08-5.63,49.55-16.91c1.1-.86.57-2.63-.82-2.72-2.51-.16-6.71-.07-13.5.89,0,0-10.65,12.64-35.22,18.74Z"/>
      </g>
      <path class="cls-21" d="m1017.69,1341.01s1.79,21.54-8.17,61.95c-7.31,29.65-48.15,112.27-48.15,112.27-.07-.9-.14-1.81-.21-2.72-4.1-56.02-10.47-173.99-10.47-173.99l67,2.48Z"/>
      <path class="cls-9" d="m1017.69,1341.01s-52.2,131.42-84.99,190.17c-32.79,58.75-43.04,75.15-43.04,75.15,0,0-18.79-7.52-20.5-12.64,0,0,12.54-113.43,34.5-141.08,12.41-15.62,26.99-62.51,27.67-78.91.68-16.4,2.51-55.68,2.51-55.68l83.85,22.98Z"/>
    </g>
    <g>
      <rect class="cls-21" x="1198.4" y="1277.69" width="160.44" height="132.29" transform="translate(2557.23 2687.68) rotate(180)"/>
      <rect class="cls-9" x="1278.61" y="1277.69" width="160.44" height="132.29" transform="translate(2717.67 2687.68) rotate(180)"/>
      <polygon class="cls-8" points="1198.49 1376.43 1223.91 1376.43 1221.67 1369.28 1223.91 1364.17 1198.49 1364.17 1198.49 1376.43"/>
      <polygon class="cls-19" points="1278.61 1318.63 1304.04 1318.63 1301.8 1311.48 1304.04 1306.37 1278.61 1306.37 1278.61 1318.63"/>
      <polygon class="cls-8" points="1278.61 1306.37 1253.19 1306.37 1255.43 1313.52 1253.19 1318.63 1278.61 1318.63 1278.61 1306.37"/>
      <polygon class="cls-19" points="1439.06 1377.85 1413.63 1377.85 1415.87 1385.01 1413.63 1390.12 1439.06 1390.12 1439.06 1377.85"/>
      <rect class="cls-16" x="1382.38" y="1286.66" width="46.17" height="17.96"/>
    </g>
    <g id="P297LW">
      <path class="cls-17" d="m1721.64,1192.83s-7.6,43.26-15.92,88.45c-9.04,49.12-18.91,100.53-20.78,101.17-3.58,1.24-3.29-6.58-5.75-12.55-1.98-4.8-7.99-45.87-6.01-71.49.48-6.25,2.09-83.33,12.77-92.43,10.69-9.1,35.69-13.16,35.69-13.16Z"/>
      <path class="cls-17" d="m1676.84,1358.43s1.85,7.08-.84,14.01c-2.69,6.93-3.26,8.91,1.71,12.8,4.97,3.89,10.36,9.36,14.09,7.74,3.73-1.62,1.42-33.35,1.42-33.35l-16.38-1.21Z"/>
      <path class="cls-8" d="m1687.18,1642.09c4.62-2.82,1.99-23.83,1.99-23.83,0,0-21.51-17.21-24.47-4.03-2.96,13.17-20.43,19.09-30.38,20.7-6.87,1.11-8.99,4.92-9.65,7.17h62.51Z"/>
      <path class="cls-8" d="m1782.68,1642.09c4.62-2.82,1.99-23.83,1.99-23.83,0,0-21.51-17.21-24.47-4.03-2.96,13.17-20.43,19.09-30.38,20.7-6.87,1.11-8.99,4.92-9.65,7.17h62.51Z"/>
      <path class="cls-9" d="m1752.79,1398.16c-7.65,32.34-17.3,69.28-21.06,90.1-.44,2.41-.8,4.61-1.07,6.55-.26,1.95-.44,3.65-.52,5.06-2,39-32.82,128.17-38.34,130.25-8.53,3.22-21.97-3.62-29-5.86-2.91-.94-4.88-3.87-4.23-6.85,15.27-70.18,24.68-170.63,26.72-230.46,1.03-30.14,2.4-51.57,2.4-51.57,0,0,75.19-20.06,75.64,5.32.17,9.83-4.58,32.26-10.55,57.47Z"/>
      <path class="cls-21" d="m1752.79,1398.16c-7.65,32.34-17.3,69.28-21.06,90.1-.44,2.41-2.74,22.88-3.01,24.82l-13.16-149.56,18.67,1.72,18.57,32.92Z"/>
      <path class="cls-9" d="m1723.19,1349.39l26.53,277.16s19.64,6.37,37.38,1.46c0,0,10.31-151.53,9.34-188.57-.97-37.04,8.35-99.12-2.13-105.96-10.48-6.85-71.12,15.91-71.12,15.91Z"/>
      <path class="cls-19" d="m1793.8,1275.29c.29,3.16,1.49,62.24,1.58,64.46.09,2.45-6.59,7.32-30.19,10.82-8.47,1.26-18.45,2.12-29.92,2.25-29.42.33-40.67-12.04-40.67-12.04-2.01.04,2.24-14.35,2.92-107.74-.5,0-1.05.09-1.54-.09-10.43-4.05-20.13-12.52-20.13-12.52,0,0,11.82-32.84,22.99-49.56,2.73-4.08,10.06-7.28,19.84-9.37,2.57-.55,5.31-1.03,8.18-1.42,13.32-1.82,29.42-1.88,44.34.28,2.59.36,5.15.8,7.65,1.32,11.04,2.24,20.98,5.83,28.04,10.97,10.39,7.55,18.12,46.21,18.12,46.21,0,0-9.79,11.11-31.82,16.52-1.16,22.24-.69,25.27.61,39.91Z"/>
      <path class="cls-9" d="m1687.7,1335.37l8.98-111.89c.52-6.44,6.04-11.32,12.5-11.03l61.19,2.4c5.04.2,9.11,4.2,9.36,9.24.75,14.7,3.56,43.24,14.07,51.2l5.54,81-68.38,61.91s-7.77-45.37-18.45-57.98c-5.98-7.05-24.81-24.85-24.81-24.85Z"/>
      <path class="cls-9" d="m1778.84,1161.68l-7.38,57.17-7.67-1.21,7.4-57.28c2.59.36,5.15.8,7.65,1.32Z"/>
      <path class="cls-9" d="m1726.85,1160.08l-9.47,51.29-.79,4.3-.85-.2-6.75-1.51,9.69-52.47c2.57-.55,5.31-1.03,8.18-1.42Z"/>
      <path class="cls-17" d="m1825.01,1279.83s-4.59,13.96-63.65,33.27c0,0-.67-15.77,2.92-17.88,11.1-6.52,37.55-25.96,38.45-29.38.6-2.27-5.42-19.45-13.04-36.72,14-1.56,23.02-2.81,33.34-8.35,3.84,27.16,9.13,46.17,1.98,59.06Z"/>
      <path class="cls-17" d="m1754.64,1295.97s-4.93-3.77-8.71-4.33c-3.78-.56-10.16-2.97-9.12-.73,1.03,2.24,8.01,5.77,8.01,5.77l9.82-.71Z"/>
      <g>
        <path class="cls-8" d="m1745.19,1320.85l-19.24,2.35c-2.13.26-4.13-1.05-4.75-3.1l-13.16-43.66c-.79-2.62.97-5.31,3.68-5.64l19.24-2.35c2.13-.26,4.13,1.05,4.75,3.1l13.17,43.66c.79,2.62-.97,5.31-3.68,5.64Z"/>
        <path class="cls-8" d="m1738.37,1321.69l-19.24,2.35c-2.13.26-4.13-1.05-4.75-3.1l-13.16-43.66c-.79-2.62.97-5.31,3.68-5.64l19.24-2.35c2.13-.26,4.13,1.05,4.75,3.1l13.17,43.66c.79,2.62-.97,5.31-3.68,5.64Z"/>
        <path class="cls-8" d="m1724.77,1277.68h0c-.56.07-1.17-.32-1.35-.87l-12.89-38.31c-.18-.55.12-1.05.68-1.12h0c.56-.07,1.17.32,1.35.87l12.89,38.31c.18.55-.12,1.05-.69,1.12Z"/>
      </g>
      <path class="cls-17" d="m1764.28,1295.21s-3.43,2.12-5.86,1.48c-2.01-.53-3.78-.72-6.1-2.3-2.45-1.67-7.88.54-9.48,1.61-4.49,2.99-19.64,2.87-19.64,5.86s6.59,11.4,14.57,13.9c7.98,2.49,23.6-2.66,23.6-2.66l2.92-17.88Z"/>
      <path class="cls-17" d="m1764.47,1158.99c.33,8.89-7.55,13.22-19.36,11.53-11.81-1.68-12.04-10.85-12.04-10.85l.29-8.87.34-10.49.31-9.37,28.58,3.87c-.09.71-.07,2.36.04,4.53h0c.27,5.63,1.07,14.69,1.85,19.65Z"/>
      <path class="cls-6" d="m1762.63,1139.34h0c-.27.39-6.8,9.3-29.26,11.46l.34-10.49,28.93-.97h0Z"/>
      <path class="cls-17" d="m1728.19,1145.26s35.17,7.11,39.26-14.86c4.09-21.97,11.38-35.85-10.9-41.32-22.28-5.47-28.22,2.1-31.37,9.11-3.15,7-6.03,44.66,3.01,47.07Z"/>
      <path class="cls-8" d="m1765.83,1135.28s12.23,2.76,13.39-19.5c.45-8.57,2.58-38.66-21.91-37.63-24.49,1.03-35.64,15.34-37.87,17.86-16.71,18.86,23.95,4.82,29.36,9.21,5.41,4.38.26,11.6,6.44,14.18,6.19,2.58,11.08,2.58,10.05,8.25-1.03,5.67.53,7.65.53,7.65Z"/>
      <path class="cls-9" d="m1716.16,1096.44s13.1,4.56,17.69,4.89c1.37.1,21.69,1.5,21.69,1.5l29.69,5.24s5.79-22.04-8.73-35.89h0c-.36-.35-.74-.7-1.13-1.03-3.92-3.39-9.18-6.2-16.19-7.96-35.5-8.92-42.88,31.97-43.03,33.25Z"/>
      <path class="cls-21" d="m1733.46,1100.71l5.61.75c4.39-5.8,20.62-25.91,37.73-28.9-.1-.15-.2-.28-.29-.38h0c-.29-.36-.53-.54-.96-1.08-.06.01-.11.03-.17.04-21.89,5.24-38.21,24.41-41.91,29.57Z"/>
      <path class="cls-9" d="m1755.55,1102.83s3.82,4.32,4.82,8.48c1,4.16,20.28,6.65,21.61,4.49,1.33-2.16,3.26-7.73,3.26-7.73l-29.69-5.24Z"/>
      <path class="cls-21" d="m1755.55,1102.83s-35.52.66-51.76-7.89c-1.24-.65-1.03-2.49.33-2.82,2.44-.6,6.6-1.26,13.45-1.51,0,0,12.71,10.56,37.98,12.22Z"/>
    </g>
    <g>
      <polygon class="cls-18" points="352.73 1060.2 300.96 1060.2 300.96 1642.09 388.74 1642.09 388.74 1355.09 352.73 1207.65 352.73 1060.2"/>
      <g>
        <rect class="cls-7" x="352.73" y="1060.2" width="286.96" height="147.45"/>
        <rect class="cls-7" x="388.74" y="1355.09" width="286.96" height="287"/>
        <polygon class="cls-16" points="675.7 1355.09 388.74 1355.09 352.73 1207.65 639.69 1207.65 675.7 1355.09"/>
        <g>
          <g>
            <g>
              <polygon class="cls-22" points="393.48 1236.93 385.97 1236.93 383.1 1226.25 390.61 1226.25 393.48 1236.93"/>
              <polygon class="cls-22" points="410.54 1236.93 403.04 1236.93 400.17 1226.25 407.67 1226.25 410.54 1236.93"/>
              <polygon class="cls-22" points="427.61 1236.93 420.11 1236.93 417.24 1226.25 424.74 1226.25 427.61 1236.93"/>
              <polygon class="cls-22" points="444.68 1236.93 437.18 1236.93 434.31 1226.25 441.81 1226.25 444.68 1236.93"/>
              <polygon class="cls-22" points="461.75 1236.93 454.25 1236.93 451.38 1226.25 458.88 1226.25 461.75 1236.93"/>
              <polygon class="cls-22" points="478.82 1236.93 471.32 1236.93 468.45 1226.25 475.95 1226.25 478.82 1236.93"/>
            </g>
            <g>
              <polygon class="cls-22" points="398.83 1256.88 391.33 1256.88 388.46 1246.2 395.96 1246.2 398.83 1256.88"/>
              <polygon class="cls-22" points="415.9 1256.88 408.4 1256.88 405.53 1246.2 413.03 1246.2 415.9 1256.88"/>
              <polygon class="cls-22" points="432.97 1256.88 425.47 1256.88 422.6 1246.2 430.1 1246.2 432.97 1256.88"/>
              <polygon class="cls-22" points="450.04 1256.88 442.54 1256.88 439.67 1246.2 447.17 1246.2 450.04 1256.88"/>
              <polygon class="cls-22" points="467.11 1256.88 459.6 1256.88 456.73 1246.2 464.24 1246.2 467.11 1256.88"/>
              <polygon class="cls-22" points="484.17 1256.88 476.67 1256.88 473.8 1246.2 481.31 1246.2 484.17 1256.88"/>
            </g>
          </g>
          <g>
            <g>
              <polygon class="cls-22" points="404.38 1277.54 396.88 1277.54 394.01 1266.85 401.51 1266.85 404.38 1277.54"/>
              <polygon class="cls-22" points="421.45 1277.54 413.95 1277.54 411.08 1266.85 418.58 1266.85 421.45 1277.54"/>
              <polygon class="cls-22" points="438.52 1277.54 431.01 1277.54 428.15 1266.85 435.65 1266.85 438.52 1277.54"/>
              <polygon class="cls-22" points="455.59 1277.54 448.08 1277.54 445.21 1266.85 452.72 1266.85 455.59 1277.54"/>
              <polygon class="cls-22" points="472.65 1277.54 465.15 1277.54 462.28 1266.85 469.78 1266.85 472.65 1277.54"/>
              <polygon class="cls-22" points="489.72 1277.54 482.22 1277.54 479.35 1266.85 486.85 1266.85 489.72 1277.54"/>
            </g>
            <g>
              <polygon class="cls-22" points="409.74 1297.48 402.23 1297.48 399.37 1286.8 406.87 1286.8 409.74 1297.48"/>
              <polygon class="cls-22" points="426.81 1297.48 419.3 1297.48 416.43 1286.8 423.94 1286.8 426.81 1297.48"/>
              <polygon class="cls-22" points="443.87 1297.48 436.37 1297.48 433.5 1286.8 441 1286.8 443.87 1297.48"/>
              <polygon class="cls-22" points="460.94 1297.48 453.44 1297.48 450.57 1286.8 458.07 1286.8 460.94 1297.48"/>
              <polygon class="cls-22" points="478.01 1297.48 470.51 1297.48 467.64 1286.8 475.14 1286.8 478.01 1297.48"/>
              <polygon class="cls-22" points="495.08 1297.48 487.58 1297.48 484.71 1286.8 492.21 1286.8 495.08 1297.48"/>
            </g>
          </g>
        </g>
        <g>
          <g>
            <g>
              <polygon class="cls-22" points="512.26 1236.93 504.76 1236.93 501.89 1226.25 509.39 1226.25 512.26 1236.93"/>
              <polygon class="cls-22" points="529.33 1236.93 521.83 1236.93 518.96 1226.25 526.46 1226.25 529.33 1236.93"/>
              <polygon class="cls-22" points="546.4 1236.93 538.9 1236.93 536.03 1226.25 543.53 1226.25 546.4 1236.93"/>
              <polygon class="cls-22" points="563.47 1236.93 555.96 1236.93 553.1 1226.25 560.6 1226.25 563.47 1236.93"/>
              <polygon class="cls-22" points="580.54 1236.93 573.03 1236.93 570.16 1226.25 577.67 1226.25 580.54 1236.93"/>
              <polygon class="cls-22" points="597.6 1236.93 590.1 1236.93 587.23 1226.25 594.73 1226.25 597.6 1236.93"/>
            </g>
            <g>
              <polygon class="cls-22" points="517.62 1256.88 510.12 1256.88 507.25 1246.2 514.75 1246.2 517.62 1256.88"/>
              <polygon class="cls-22" points="534.69 1256.88 527.18 1256.88 524.32 1246.2 531.82 1246.2 534.69 1256.88"/>
              <polygon class="cls-22" points="551.76 1256.88 544.25 1256.88 541.38 1246.2 548.89 1246.2 551.76 1256.88"/>
              <polygon class="cls-22" points="568.82 1256.88 561.32 1256.88 558.45 1246.2 565.95 1246.2 568.82 1256.88"/>
              <polygon class="cls-22" points="585.89 1256.88 578.39 1256.88 575.52 1246.2 583.02 1246.2 585.89 1256.88"/>
              <polygon class="cls-22" points="602.96 1256.88 595.46 1256.88 592.59 1246.2 600.09 1246.2 602.96 1256.88"/>
            </g>
          </g>
          <g>
            <g>
              <polygon class="cls-22" points="523.17 1277.54 515.66 1277.54 512.79 1266.85 520.3 1266.85 523.17 1277.54"/>
              <polygon class="cls-22" points="540.24 1277.54 532.73 1277.54 529.86 1266.85 537.37 1266.85 540.24 1277.54"/>
              <polygon class="cls-22" points="557.3 1277.54 549.8 1277.54 546.93 1266.85 554.43 1266.85 557.3 1277.54"/>
              <polygon class="cls-22" points="574.37 1277.54 566.87 1277.54 564 1266.85 571.5 1266.85 574.37 1277.54"/>
              <polygon class="cls-22" points="591.44 1277.54 583.94 1277.54 581.07 1266.85 588.57 1266.85 591.44 1277.54"/>
              <polygon class="cls-22" points="608.51 1277.54 601.01 1277.54 598.14 1266.85 605.64 1266.85 608.51 1277.54"/>
            </g>
            <g>
              <polygon class="cls-22" points="528.52 1297.48 521.02 1297.48 518.15 1286.8 525.65 1286.8 528.52 1297.48"/>
              <polygon class="cls-22" points="545.59 1297.48 538.09 1297.48 535.22 1286.8 542.72 1286.8 545.59 1297.48"/>
              <polygon class="cls-22" points="562.66 1297.48 555.16 1297.48 552.29 1286.8 559.79 1286.8 562.66 1297.48"/>
              <polygon class="cls-22" points="579.73 1297.48 572.23 1297.48 569.36 1286.8 576.86 1286.8 579.73 1297.48"/>
              <polygon class="cls-22" points="596.8 1297.48 589.3 1297.48 586.43 1286.8 593.93 1286.8 596.8 1297.48"/>
              <polygon class="cls-22" points="613.87 1297.48 606.36 1297.48 603.49 1286.8 611 1286.8 613.87 1297.48"/>
            </g>
          </g>
        </g>
        <rect class="cls-8" x="374.76" y="1107.29" width="106.54" height="85.84"/>
        <rect class="cls-19" x="473.8" y="1107.29" width="7.61" height="85.84"/>
        <path class="cls-18" d="m665.55,1612.79h-256.65v-105.54h256.65v105.54Zm-254.97-1.68h253.29v-102.19h-253.29v102.19Z"/>
        <path class="cls-3" d="m546.73,1084.85c0,3.2-1.82,5.79-4.07,5.79s-4.07-2.59-4.07-5.79,1.82-5.79,4.07-5.79,4.07,2.59,4.07,5.79Z"/>
        <path class="cls-10" d="m565.75,1084.85c0,3.2-1.82,5.79-4.07,5.79s-4.07-2.59-4.07-5.79,1.82-5.79,4.07-5.79,4.07,2.59,4.07,5.79Z"/>
        <path class="cls-20" d="m584.77,1084.85c0,3.2-1.82,5.79-4.07,5.79s-4.07-2.59-4.07-5.79,1.82-5.79,4.07-5.79,4.07,2.59,4.07,5.79Z"/>
        <path class="cls-3" d="m603.8,1084.85c0,3.2-1.82,5.79-4.07,5.79s-4.07-2.59-4.07-5.79,1.82-5.79,4.07-5.79,4.07,2.59,4.07,5.79Z"/>
        <path class="cls-10" d="m622.82,1084.85c0,3.2-1.82,5.79-4.07,5.79s-4.07-2.59-4.07-5.79,1.82-5.79,4.07-5.79,4.07,2.59,4.07,5.79Z"/>
        <path class="cls-18" d="m623.66,1177.4h-84.26v-70.95h84.26v70.95Zm-82.58-1.68h80.91v-67.6h-80.91v67.6Z"/>
        <rect class="cls-13" x="403.95" y="1116.46" width="13" height="2.4"/>
        <g>
          <rect class="cls-13" x="378.7" y="1116.46" width="20.5" height="2.4"/>
          <rect class="cls-13" x="378.7" y="1122.87" width="31.01" height="2.4"/>
          <rect class="cls-13" x="413.9" y="1122.87" width="20.57" height="2.4"/>
          <rect class="cls-13" x="419.77" y="1116.46" width="22.46" height="2.4"/>
        </g>
        <g>
          <rect class="cls-13" x="378.7" y="1133.92" width="20.5" height="2.4"/>
          <rect class="cls-13" x="378.7" y="1140.33" width="31.01" height="2.4"/>
          <rect class="cls-13" x="413.9" y="1140.33" width="20.57" height="2.4"/>
          <rect class="cls-13" x="403.95" y="1133.92" width="13" height="2.4"/>
          <rect class="cls-13" x="419.77" y="1133.92" width="22.46" height="2.4"/>
        </g>
        <g>
          <rect class="cls-13" x="378.7" y="1153.16" width="20.5" height="2.4"/>
          <rect class="cls-13" x="378.7" y="1159.57" width="31.01" height="2.4"/>
          <rect class="cls-13" x="413.9" y="1159.57" width="20.57" height="2.4"/>
          <rect class="cls-13" x="403.95" y="1153.16" width="13" height="2.4"/>
          <rect class="cls-13" x="419.77" y="1153.16" width="22.46" height="2.4"/>
        </g>
        <g>
          <rect class="cls-13" x="378.7" y="1171.68" width="20.5" height="2.4"/>
          <rect class="cls-13" x="378.7" y="1178.09" width="31.01" height="2.4"/>
          <rect class="cls-13" x="413.9" y="1178.09" width="20.57" height="2.4"/>
          <rect class="cls-13" x="403.95" y="1171.68" width="13" height="2.4"/>
          <rect class="cls-13" x="419.77" y="1171.68" width="22.46" height="2.4"/>
        </g>
      </g>
    </g>
    <g>
      <rect class="cls-11" x="1994.73" y="1539.77" width="123.98" height="102.23" transform="translate(4113.43 3181.77) rotate(180)"/>
      <rect class="cls-10" x="2056.72" y="1539.77" width="123.98" height="102.23" transform="translate(4237.41 3181.77) rotate(180)"/>
      <polygon class="cls-5" points="1994.8 1616.07 2014.45 1616.07 2012.72 1610.55 2014.45 1606.6 1994.8 1606.6 1994.8 1616.07"/>
      <polygon class="cls-19" points="2056.72 1571.41 2076.36 1571.41 2074.63 1565.88 2076.36 1561.93 2056.72 1561.93 2056.72 1571.41"/>
      <polygon class="cls-8" points="2056.72 1561.93 2037.07 1561.93 2038.8 1567.46 2037.07 1571.41 2056.72 1571.41 2056.72 1561.93"/>
      <polygon class="cls-19" points="2180.7 1617.17 2161.05 1617.17 2162.78 1622.7 2161.05 1626.65 2180.7 1626.65 2180.7 1617.17"/>
      <rect class="cls-16" x="2136.9" y="1546.71" width="35.68" height="13.88"/>
    </g>
    <g>
      <rect class="cls-11" x="1826.73" y="1539.67" width="124.22" height="102.43" transform="translate(3777.68 3181.77) rotate(180)"/>
      <rect class="cls-10" x="1888.84" y="1539.67" width="124.22" height="102.43" transform="translate(3901.91 3181.77) rotate(180)"/>
      <polygon class="cls-8" points="1826.8 1616.13 1846.49 1616.13 1844.75 1610.59 1846.49 1606.63 1826.8 1606.63 1826.8 1616.13"/>
      <polygon class="cls-19" points="1888.84 1571.37 1908.53 1571.37 1906.79 1565.83 1908.53 1561.87 1888.84 1561.87 1888.84 1571.37"/>
      <polygon class="cls-8" points="1888.84 1561.87 1869.16 1561.87 1870.89 1567.41 1869.16 1571.37 1888.84 1571.37 1888.84 1561.87"/>
      <polygon class="cls-19" points="2013.07 1617.23 1993.39 1617.23 1995.12 1622.76 1993.39 1626.72 2013.07 1626.72 2013.07 1617.23"/>
      <rect class="cls-16" x="1969.19" y="1546.62" width="35.75" height="13.91"/>
    </g>
    <g>
      <rect class="cls-8" x="1891.1" y="1443.73" width="116.47" height="96.04" transform="translate(3898.67 2983.5) rotate(180)"/>
      <rect class="cls-19" x="1949.33" y="1443.73" width="116.47" height="96.04" transform="translate(4015.14 2983.5) rotate(180)"/>
      <polygon class="cls-6" points="1891.17 1515.41 1909.62 1515.41 1908 1510.22 1909.62 1506.51 1891.17 1506.51 1891.17 1515.41"/>
      <polygon class="cls-17" points="1949.33 1473.45 1967.79 1473.45 1966.17 1468.26 1967.79 1464.55 1949.33 1464.55 1949.33 1473.45"/>
      <polygon class="cls-6" points="1949.33 1464.55 1930.88 1464.55 1932.5 1469.74 1930.88 1473.45 1949.33 1473.45 1949.33 1464.55"/>
      <polygon class="cls-17" points="2065.81 1516.44 2047.35 1516.44 2048.98 1521.64 2047.35 1525.35 2065.81 1525.35 2065.81 1516.44"/>
      <rect class="cls-16" x="2024.67" y="1450.24" width="33.52" height="13.04"/>
    </g>
    <g>
      <g>
        <rect class="cls-18" x="489.72" y="1134.23" width="5.18" height="5.18"/>
        <rect class="cls-18" x="503.16" y="1134.23" width="5.18" height="5.18"/>
        <rect class="cls-18" x="516.6" y="1134.23" width="5.18" height="5.18"/>
      </g>
      <g>
        <rect class="cls-18" x="489.72" y="1145.76" width="5.18" height="5.18"/>
        <rect class="cls-18" x="503.16" y="1145.76" width="5.18" height="5.18"/>
        <rect class="cls-18" x="516.6" y="1145.76" width="5.18" height="5.18"/>
      </g>
      <g>
        <rect class="cls-18" x="489.72" y="1158.54" width="5.18" height="5.18"/>
        <rect class="cls-18" x="503.16" y="1158.54" width="5.18" height="5.18"/>
        <rect class="cls-22" x="516.6" y="1158.54" width="5.18" height="5.18"/>
      </g>
    </g>
    <g>
      <g>
        <path class="cls-8" d="m543.65,1276.05l8.38-1.24c.93-.14,1.32-1.09.94-2.26l-8.16-24.84c-.49-1.49-2.02-2.69-3.2-2.52l-8.38,1.24c-.93.14-1.32,1.09-.94,2.26l8.16,24.84c.49,1.49,2.02,2.69,3.2,2.52Z"/>
        <path class="cls-1" d="m546.62,1275.61l8.38-1.24c.93-.14,1.32-1.09.94-2.26l-8.16-24.84c-.49-1.49-2.02-2.69-3.2-2.52l-8.38,1.24c-.93.14-1.32,1.09-.94,2.26l8.16,24.84c.49,1.49,2.02,2.69,3.2,2.52Z"/>
        <path class="cls-1" d="m538.53,1250.53h0c.24-.04.37-.32.27-.64l-6.63-21.97c-.09-.31-.37-.54-.62-.5h0c-.24.04-.37.32-.27.64l6.63,21.97c.09.31.37.54.62.5Z"/>
      </g>
      <path class="cls-17" d="m536.31,1167.12s-6.05-10.3-10.86-14.11c-4.8-3.82-17.49-4.88-17.98-3.9-1.52,3.02,5.03,7.38,6.39,10.16,1.36,2.77.78,6.77,7.23,10.03,6.67,3.37,10.53,5.59,10.53,5.59l4.68-7.76Z"/>
      <path class="cls-8" d="m531.2,1165.72c3.11-4.84,4.04-5.09,4.04-5.09,0,0,51.47,20.53,56.38,22.24,4.91,1.71,78.35,6.03,78.35,6.03l22.16,48.71s-97.86-22.32-110.22-26.91c-20.43-7.58-53.19-37.27-53.19-37.27,0,0,.04-3.91,2.48-7.71Z"/>
      <path class="cls-8" d="m659.06,1621.17s-1.12,18.07-4.48,22.32h-51.63c.33-1.8,1.79-6.25,8.24-7.38,8.16-1.42,21.81-7.15,26.75-17.93,5.2-11.34,21.11,2.99,21.11,2.99Z"/>
      <path class="cls-8" d="m750.68,1618.65s3.22,23.47-1.2,23.87c-.59.05-19.64.04-27.09,0-9.28-.05-24.11.06-24.11.06-1.92.08-3.18-2-2.2-3.65,1.07-1.81,3.12-3.75,7.01-4.5,8.13-1.57,21.68-7.54,26.43-18.4,5-11.43,21.16,2.62,21.16,2.62Z"/>
      <path class="cls-21" d="m634.79,1380.72s12.98,45.43,50.19,124.31c37.21,78.88,40.08,114.83,40.08,114.83l25.63-1.21s-2.41-93.89-19.98-133.7c-17.57-39.81-21.16-148.74-21.16-148.74l-74.75,44.51Z"/>
      <path class="cls-9" d="m613.95,1341.63s-1.03,70.34,11.14,156.7c12.17,86.36,8.04,123.02,8.04,123.02l29.15.97s17.42-86.39,12.42-129.62c-4.99-43.23,23.85-148.33,23.85-148.33l-84.61-2.74Z"/>
      <path class="cls-17" d="m671.46,1177.03l-13.75,10.18-19.87-4.18c.28-1.81,1.59-9.32,2.78-16.12.07-.4.14-.8.21-1.19,1.02-5.79,1.91-10.76,1.91-10.76l18.56-9.25,6.92-3.45c-.02.12-.54,6.42-.61,7.34-1.3,16.33,3.85,27.43,3.85,27.43Z"/>
      <path class="cls-8" d="m639.24,1171.9c.44-.18,27.03-8.03,29.92-7.08,2.89.95,4.6,6.54,4.6,6.54l-41.05,11.69s.98-8.82,6.54-11.16Z"/>
      <path class="cls-19" d="m710.84,1350.32c-4.5,20.56-98.47-43.96-97.22-56.5.14-1.38.28-2.77.41-4.14,1.73-17.47,3.4-34.57,3.51-45.72.09-9.68,1.42-19.57,3.2-28.56,1.63-8.3,3.64-15.83,5.38-21.7,1.23-4.13,3.52-7.77,6.57-10.63,2.16-2.03,4.7-3.66,7.5-4.78.76-.32,1.54-.58,2.33-.81,11.32-3.28,26.98-7.35,31.22-6.11,11.5,3.39,20.04,23.62,26.09,49.43,11.32,48.31,13.94,116.13,11,129.53Z"/>
      <path class="cls-6" d="m666.22,1149.89c-4.07,7.8-19.26,14.54-25.59,17.02.07-.4.14-.8.21-1.19,1.02-5.79,1.91-10.76,1.91-10.76l18.56-9.25c4.1-.06,6.6.97,4.92,4.18Z"/>
      <path class="cls-17" d="m633.73,1153.87s33.48,10.44,39.66-10.51c6.18-20.95,14.67-33.71-6.45-41.26-21.11-7.55-27.64-.79-31.41,5.7-3.76,6.49-10.35,42.81-1.81,46.07Z"/>
      <path class="cls-8" d="m636.85,1105.79s2.14,24.38,7.18,23.32c5.04-1.06,9.61-1.84,8.88,5.51-.74,7.35-7.73,15.83,7.81,17.13,15.54,1.3,37.87-38.77,33.6-46.35-12.31-21.89-75.26-26.31-57.46.4Z"/>
      <path class="cls-8" d="m616.45,1341.63c9.31,3.36-.16-9.25,0-11.88.72-11.56-3.81-26.17-2.42-40.09l56.84-33.98s13.49,85.4-54.42,85.94Z"/>
      <path class="cls-9" d="m710.84,1350.32c-24.26,44.97-28.13,62.14-28.13,62.14-21.12-2.41-57.31-43.92-68.78-55.01,0,0-1.56-51.09-.31-63.64l17.54-.51s31.71,8.04,39.93-2.87c8.22-10.91,4.66-64.44,4.66-64.44l24.1-5.21c11.32,48.31,17.51,117.46,11,129.53Z"/>
      <path class="cls-17" d="m572.4,1264.29s-6.93-1.35-8.73-2.83c-2.67-2.19-4.76-5.86-6.07-6.27-2.19-.68-7.57-7.44-8.02-7.92-.17-.19-1.63.52-1.27,1.63.36,1.12,1.16,3.54,1.45,4.41,1.27,3.84,1.21,5.03-3.38,3.54-.59-.19-11.21-3.56-12.3-1.15-1.09,2.41,3.31,14,8.85,16.5,5.54,2.5,19.22.24,20.2.53,8.36,2.43,9.28-8.44,9.28-8.44Z"/>
      <path class="cls-19" d="m566.76,1262.03s56.37,9.58,61.37,7.15c7.97-3.88-3.09-61.08-3.09-61.08,0,0-.48-12.96,14.67-16.02,13.16-2.66,25.85,7.2,25.85,7.2,0,0,11.55,10.33,10.07,21.79-3.27,25.4-8.36,77.06-25.34,84.98-21.91,10.21-85.32-28.32-85.32-28.32,0,0-2.11-2.59-1.81-7.39.26-4.23,3.61-8.31,3.61-8.31Z"/>
      <path class="cls-9" d="m680.42,1224.99l-4.67,1.01s-9.87-42.74-43.05-42.95c2.16-2.03,4.7-3.66,7.5-4.78,12.16,3.26,33.27,13.65,40.23,46.71Z"/>
      <path class="cls-17" d="m517.79,1161.56s-9.14-5.61-9.57-3.2c-.21,1.2,3.85,4.48,5.48,5.88,1.63,1.4,5.8,4.15,5.8,4.15l-1.72-6.83Z"/>
    </g>
    <path class="cls-8" d="m281.07,1642.09h1931.2c1.61,0,2.92,1.31,2.92,2.92v3.25c0,1.61-1.31,2.92-2.92,2.92H281.07c-1.61,0-2.92-1.31-2.92-2.92v-3.25c0-1.61,1.31-2.92,2.92-2.92Z"/>
  </g>
</svg>